<?xml version="1.0" encoding="UTF-8"?>
<svg width="256px" height="256px" viewBox="0 0 256 256" version="1.1" xmlns="http://www.w3.org/2000/svg" preserveAspectRatio="xMidYMid">
    <g>
        <path d="M128,0 C57.28,0 0,57.28 0,128 C0,198.72 57.28,256 128,256 C198.72,256 256,198.72 256,128 C256,57.28 198.72,0 128,0" fill="#FF0000"></path>
        <path d="M128,32 C74.98,32 32,74.98 32,128 C32,181.02 74.98,224 128,224 C181.02,224 224,181.02 224,128 C224,74.98 181.02,32 128,32 M128,160 C110.32,160 96,145.68 96,128 C96,110.32 110.32,96 128,96 C145.68,96 160,110.32 160,128 C160,145.68 145.68,160 128,160" fill="#FFFFFF"></path>
    </g>
</svg> 