<?xml version="1.0" encoding="UTF-8"?>
<svg width="256px" height="256px" viewBox="0 0 256 256" version="1.1" xmlns="http://www.w3.org/2000/svg" preserveAspectRatio="xMidYMid">
    <g>
        <path d="M218.281037,157.985763 C218.281037,166.095955 211.686159,172.690833 203.575967,172.690833 C195.465774,172.690833 188.870896,166.095955 188.870896,157.985763 C188.870896,149.87557 195.465774,143.280692 203.575967,143.280692 C211.686159,143.280692 218.281037,149.87557 218.281037,157.985763" fill="#EE4C2C"></path>
        <path d="M177.878159,256 L78.0917757,256 C34.9692373,256 0,221.030763 0,177.908225 L0,78.0917757 C0,34.9692373 34.9692373,0 78.0917757,0 L177.878159,0 C221.000697,0 255.969935,34.9692373 255.969935,78.0917757 L255.969935,177.908225 C255.969935,221.030763 221.000697,256 177.878159,256 Z M78.0917757,10.7431694 C40.8950199,10.7431694 10.7431694,40.8950199 10.7431694,78.0917757 L10.7431694,177.908225 C10.7431694,215.104981 40.8950199,245.256831 78.0917757,245.256831 L177.878159,245.256831 C215.074915,245.256831 245.226765,215.104981 245.226765,177.908225 L245.226765,78.0917757 C245.226765,40.8950199 215.074915,10.7431694 177.878159,10.7431694 L78.0917757,10.7431694 Z" fill="#EE4C2C"></path>
        <path d="M103.194413,80.5964378 C103.194413,88.7066298 96.5995353,95.3015075 88.4893433,95.3015075 C80.3791513,95.3015075 73.7842736,88.7066298 73.7842736,80.5964378 C73.7842736,72.4862458 80.3791513,65.8913682 88.4893433,65.8913682 C96.5995353,65.8913682 103.194413,72.4862458 103.194413,80.5964378" fill="#EE4C2C"></path>
        <path d="M156.897589,80.5964378 L156.897589,179.368447 C156.897589,187.478639 150.302711,194.073517 142.192519,194.073517 C134.082327,194.073517 127.487449,187.478639 127.487449,179.368447 L127.487449,80.5964378 C127.487449,72.4862458 134.082327,65.8913682 142.192519,65.8913682 C150.302711,65.8913682 156.897589,72.4862458 156.897589,80.5964378" fill="#EE4C2C"></path>
    </g>
</svg> 