<?xml version="1.0" encoding="UTF-8"?>
<svg width="256px" height="256px" viewBox="0 0 256 256" version="1.1" xmlns="http://www.w3.org/2000/svg" preserveAspectRatio="xMidYMid">
    <g>
        <path d="M128,0 C57.28,0 0,57.28 0,128 C0,198.72 57.28,256 128,256 C198.72,256 256,198.72 256,128 C256,57.28 198.72,0 128,0" fill="#00B400"></path>
        <path d="M149.344,127.872 C149.344,139.328 140.096,148.576 128.64,148.576 C117.184,148.576 107.936,139.328 107.936,127.872 C107.936,116.416 117.184,107.168 128.64,107.168 C140.096,107.168 149.344,116.416 149.344,127.872" fill="#FFFFFF"></path>
        <path d="M128.64,73.728 C93.184,73.728 64.512,102.4 64.512,137.856 C64.512,173.312 93.184,201.984 128.64,201.984 C164.096,201.984 192.768,173.312 192.768,137.856 C192.768,102.4 164.096,73.728 128.64,73.728 M128.64,182.016 C104.192,182.016 84.48,162.304 84.48,137.856 C84.48,113.408 104.192,93.696 128.64,93.696 C153.088,93.696 172.8,113.408 172.8,137.856 C172.8,162.304 153.088,182.016 128.64,182.016" fill="#FFFFFF"></path>
    </g>
</svg> 