<?xml version="1.0" encoding="UTF-8"?>
<svg width="256px" height="256px" viewBox="0 0 256 256" version="1.1" xmlns="http://www.w3.org/2000/svg" preserveAspectRatio="xMidYMid">
    <g>
        <path d="M127.273143,0 L242.938286,66.5485714 L242.938286,199.645714 L127.273143,266.194286 L11.6068571,199.645714 L11.6068571,66.5485714 L127.273143,0" fill="#FF6F00"></path>
        <path d="M127.273143,13.2342857 L233.146286,73.7828571 L233.146286,194.88 L127.273143,255.428571 L21.4,194.88 L21.4,73.7828571 L127.273143,13.2342857" fill="#FF6F00"></path>
        <path d="M127.273143,13.2342857 L233.146286,73.7828571 L233.146286,194.88 L127.273143,255.428571 L21.4,194.88 L21.4,73.7828571 L127.273143,13.2342857" fill="#F75E00"></path>
        <path d="M126.586286,232.662857 L126.586286,134.491429 L48.0457143,89.4057143 L48.0457143,177.297143 L126.586286,232.662857 Z M204.437714,177.297143 L204.437714,89.4057143 L157.595429,115.565714 L157.595429,203.177143 L204.437714,177.297143 Z M195.876571,82.7771429 L126.586286,33.3371429 L57.2971429,82.7771429 L126.586286,127.862857 L195.876571,82.7771429 Z" fill="#FFFFFF"></path>
    </g>
</svg> 